<svg width="1968" height="1882" xmlns="http://www.w3.org/2000/svg" xmlns:xlink="http://www.w3.org/1999/xlink" xml:space="preserve" overflow="hidden"><g transform="translate(4 3)"><path d="M632.702 1853C605.127 1550.02-157.22 207.578 30.0087 27.8861 217.238-151.805 1622.57 636.699 1941.68 568.386 1938.93 553.725 1935.77 539.472 1932.52 525.219L630.362 1852.59C631.278 1852.59 631.786 1852.59 632.702 1853ZM474.575 1807.19 1898.23 407.02C1893.65 394.599 1889.07 382.28 1883.98 369.86L471.828 1806.27C472.744 1806.27 473.659 1806.78 474.575 1807.19ZM334.866 1743.45 1835.85 264.488C1830.36 253.493 1824.45 242.905 1818.45 232.419L331.61 1742.13C332.627 1742.13 333.95 1743.05 334.866 1743.45ZM1030.87 1863.08 1942.59 974.905C1946.25 954.747 1949.51 934.08 1952.26 913.515L1027.21 1864C1028.12 1863.59 1029.44 1863.59 1030.87 1863.08ZM814.131 1875.5 1960.5 753.473C1959.99 736.573 1959.58 719.571 1958.16 702.671L811.383 1875.5 814.131 1875.5ZM1330.54 1770.54 1839.11 1278.8C1853.25 1251.21 1866.58 1223.32 1877.98 1194.4L1313.14 1778.78C1319.04 1776.03 1325.04 1773.79 1330.54 1770.54ZM210.725 1664.66 1758.01 137.534C1751.09 128.371 1744.68 118.699 1737.86 109.536L206.553 1661.91C207.978 1662.82 209.301 1663.74 210.725 1664.66ZM99.8125 1572.11 1665.92 24.3229C1658.59 16.0765 1650.76 8.23718 1643.03 0.499878L95.2335 1567.94C97.0651 1569.36 98.4896 1570.69 99.8125 1572.11Z" stroke="#FFFFFF" stroke-width="6.875" stroke-linejoin="round" stroke-miterlimit="10" fill-rule="evenodd"/></g></svg>