<svg width="1961" height="1875" xmlns="http://www.w3.org/2000/svg" xmlns:xlink="http://www.w3.org/1999/xlink" xml:space="preserve" overflow="hidden"><defs><clipPath id="clip0"><rect x="-1" y="0" width="1961" height="1875"/></clipPath></defs><g clip-path="url(#clip0)" transform="translate(1 0)"><path d="M632.202 1852.5C604.627 1549.52-157.72 207.078 29.5089 27.3862 216.738-152.305 1622.07 636.199 1941.18 567.886 1938.43 553.225 1935.27 538.972 1932.02 524.719L629.862 1852.09C630.778 1852.09 631.287 1852.09 632.202 1852.5ZM474.075 1806.69 1897.73 406.52C1893.15 394.099 1888.57 381.78 1883.48 369.36L471.328 1805.77C472.244 1805.77 473.16 1806.28 474.075 1806.69ZM334.366 1742.95 1835.35 263.988C1829.86 252.993 1823.95 242.405 1817.95 231.919L331.11 1741.63C332.128 1741.63 333.45 1742.55 334.366 1742.95ZM1030.37 1862.58 1942.09 974.406C1945.75 954.247 1949.01 933.58 1951.76 913.015L1026.71 1863.5C1027.62 1863.09 1028.94 1863.09 1030.37 1862.58ZM813.631 1875 1960 752.973C1959.49 736.073 1959.08 719.071 1957.66 702.171L810.884 1875 813.631 1875ZM1330.04 1770.04 1838.61 1278.3C1852.75 1250.71 1866.08 1222.82 1877.48 1193.9L1312.64 1778.28C1318.54 1775.53 1324.54 1773.29 1330.04 1770.04ZM210.225 1664.16 1757.51 137.034C1750.59 127.871 1744.18 118.199 1737.36 109.036L206.053 1661.41C207.478 1662.32 208.801 1663.24 210.225 1664.16ZM99.3127 1571.61 1665.42 23.823C1658.09 15.5767 1650.26 7.7373 1642.53 0L94.7338 1567.44C96.5653 1568.86 97.9899 1570.19 99.3127 1571.61Z" fill-rule="evenodd"/></g></svg>